<svg xmlns="http://www.w3.org/2000/svg" viewBox="0 0 400 400" width="100%" height="100%">

  <path d="M 185 80 L 280 80 A 75 75 0 0 1 280 230 L 220 230 L 220 280 A 20 20 0 0 1 180 280 L 180 190 L 280 190 A 35 35 0 0 0 280 120 L 185 120 Z" fill="#FFF200"/>

  <path d="M 215 80 L 100 80 A 47.5 47.5 0 0 0 100 175 L 280 175 A 20 20 0 0 0 280 135 L 100 135 A 7.5 7.5 0 0 1 100 120 L 215 120 Z" fill="#FFFFFF"/>

  <path d="M 70 190 A 20 20 0 0 0 70 230 L 165 230 L 165 190 Z" fill="#FFFFFF"/>

  <line x1="175" y1="125" x2="225" y2="75" stroke="none" stroke-width="15" stroke-linecap="square"/>

  <text y="340" font-family="Arial, Helvetica, sans-serif" font-weight="900" font-size="45" fill="#FFFFFF" text-anchor="middle">
    <tspan x="90">M</tspan>
    <tspan x="165">O</tspan>
    <tspan x="240">T</tspan>
    <tspan x="315">O</tspan>
  </text>
</svg>
